<svg width="24" height="24" viewBox="0 0 24 24" fill="none" xmlns="http://www.w3.org/2000/svg">
<rect width="24" height="24" rx="12" fill="white"/>
<path d="M7.484 11.5529L12.1495 5.56432C12.5144 5.09596 13.1983 5.38747 13.1983 6.01136V10.6466C13.1983 11.0203 13.4665 11.3233 13.7974 11.3233H16.0666C16.5821 11.3233 16.8569 12.0099 16.5163 12.447L11.8508 18.4356C11.4859 18.904 10.802 18.6125 10.802 17.9886V13.3534C10.802 12.9796 10.5338 12.6767 10.203 12.6767H7.93373C7.41824 12.6767 7.14345 11.9901 7.484 11.5529Z" fill="#2A85FF"/>
<path d="M12.1495 5.56432L12.7411 6.02525V6.02525L12.1495 5.56432ZM7.484 11.5529L8.07565 12.0139H8.07565L7.484 11.5529ZM11.8508 18.4356L11.2592 17.9747H11.2592L11.8508 18.4356ZM16.5163 12.447L17.108 12.9079H17.108L16.5163 12.447ZM11.5579 5.10339L6.89236 11.092L8.07565 12.0139L12.7411 6.02525L11.5579 5.10339ZM7.93373 13.4267H10.203V11.9267H7.93373V13.4267ZM10.052 13.3534V17.9886H11.552V13.3534H10.052ZM12.4425 18.8966L17.108 12.9079L15.9247 11.9861L11.2592 17.9747L12.4425 18.8966ZM16.0666 10.5733H13.7974V12.0733H16.0666V10.5733ZM13.9483 10.6466V6.01136H12.4483V10.6466H13.9483ZM13.7974 10.5733C13.8709 10.5733 13.9182 10.6087 13.9353 10.628C13.9512 10.6458 13.9483 10.6546 13.9483 10.6466H12.4483C12.4483 11.346 12.969 12.0733 13.7974 12.0733V10.5733ZM17.108 12.9079C17.4623 12.4531 17.4856 11.8844 17.3088 11.4426C17.1318 11.0002 16.6987 10.5733 16.0666 10.5733V12.0733C16.0467 12.0733 16.0237 12.0698 16.0005 12.0617C15.9778 12.0537 15.9595 12.043 15.9461 12.0328C15.933 12.0227 15.9253 12.0137 15.9213 12.0083C15.9174 12.003 15.9162 12 15.9162 11.9999C15.9161 11.9998 15.9165 12.0008 15.9167 12.0023C15.9169 12.0038 15.9168 12.0044 15.9169 12.0037C15.9172 12.0008 15.9193 11.993 15.9247 11.9861L17.108 12.9079ZM10.052 17.9886C10.052 18.5903 10.3926 19.0973 10.8955 19.3117C11.415 19.5331 12.0443 19.4077 12.4425 18.8966L11.2592 17.9747C11.2645 17.9679 11.2943 17.9377 11.3515 17.9234C11.4046 17.9102 11.4516 17.9181 11.4837 17.9318C11.5534 17.9615 11.552 18.0108 11.552 17.9886H10.052ZM10.203 13.4267C10.1295 13.4267 10.0821 13.3913 10.065 13.372C10.0492 13.3541 10.052 13.3453 10.052 13.3534H11.552C11.552 12.6539 11.0313 11.9267 10.203 11.9267V13.4267ZM6.89236 11.092C6.53801 11.5468 6.51471 12.1156 6.69154 12.5574C6.86858 12.9997 7.30159 13.4267 7.93373 13.4267V11.9267C7.95365 11.9267 7.97659 11.9302 7.99979 11.9383C8.02257 11.9462 8.04082 11.9569 8.05423 11.9672C8.06733 11.9772 8.07505 11.9862 8.07902 11.9916C8.08295 11.997 8.08413 12 8.08416 12.0001C8.0842 12.0002 8.08384 11.9992 8.08362 11.9976C8.08342 11.9961 8.08355 11.9956 8.08347 11.9963C8.08315 11.9991 8.08101 12.007 8.07565 12.0139L6.89236 11.092ZM12.7411 6.02525C12.7358 6.03209 12.706 6.06228 12.6488 6.07656C12.5958 6.08978 12.5487 6.08186 12.5167 6.06819C12.4469 6.03847 12.4483 5.98915 12.4483 6.01136H13.9483C13.9483 5.40969 13.6077 4.90267 13.1048 4.68831C12.5853 4.46686 11.9561 4.59226 11.5579 5.10339L12.7411 6.02525Z" fill="#2A85FF"/>
</svg>
