<svg width="53" height="52" viewBox="0 0 53 52" fill="none" xmlns="http://www.w3.org/2000/svg">
<rect x="1.05176" y="0.5" width="51" height="51" rx="25.5" fill="#2A85FF"/>
<rect x="1.05176" y="0.5" width="51" height="51" rx="25.5" stroke="#2A85FF"/>
<path d="M31.5518 26C31.5518 28.7614 29.3132 31 26.5518 31C23.7903 31 21.5518 28.7614 21.5518 26C21.5518 23.2386 23.7903 21 26.5518 21C29.3132 21 31.5518 23.2386 31.5518 26Z" stroke="white" stroke-width="1.5"/>
<path d="M26.5473 17H26.5562M26.5479 35H26.5568M32.9106 19.636H32.9195M20.1858 32.364H20.1948M20.1858 19.6365H20.1948M32.91 32.3645H32.9189M35.5428 26.0006H35.5518M17.5518 26.0006H17.5607" stroke="white" stroke-width="2" stroke-linecap="round" stroke-linejoin="round"/>
</svg>
