<svg width="16" height="15" viewBox="0 0 16 15" fill="none" xmlns="http://www.w3.org/2000/svg">
<path d="M8.75016 0.833252C8.75016 0.419038 8.41438 0.083252 8.00016 0.083252C7.58595 0.083252 7.25016 0.419038 7.25016 0.833252H8.75016ZM7.25016 14.1666C7.25016 14.5808 7.58595 14.9166 8.00016 14.9166C8.41438 14.9166 8.75016 14.5808 8.75016 14.1666H7.25016ZM14.6668 8.24992C15.081 8.24992 15.4168 7.91413 15.4168 7.49992C15.4168 7.0857 15.081 6.74992 14.6668 6.74992V8.24992ZM1.3335 6.74992C0.919283 6.74992 0.583496 7.0857 0.583496 7.49992C0.583496 7.91413 0.919283 8.24992 1.3335 8.24992V6.74992ZM7.25016 0.833252V14.1666H8.75016V0.833252H7.25016ZM14.6668 6.74992H1.3335V8.24992H14.6668V6.74992Z" fill="#1A1D1F"/>
</svg>
