<svg width="20" height="16" viewBox="0 0 20 16" fill="none" xmlns="http://www.w3.org/2000/svg">
<path d="M0 15.1918V10.8452C0 9.59517 0.234375 8.29546 0.703125 6.94602C1.18608 5.58239 1.83949 4.29687 2.66335 3.08949C3.50142 1.8679 4.43892 0.83807 5.47585 0L9.0554 2.32244C8.21733 3.58665 7.5142 4.90767 6.94602 6.28551C6.39205 7.64915 6.12216 9.15483 6.13636 10.8026V15.1918H0ZM10.8026 15.1918V10.8452C10.8026 9.59517 11.0369 8.29546 11.5057 6.94602C11.9886 5.58239 12.642 4.29687 13.4659 3.08949C14.304 1.8679 15.2415 0.83807 16.2784 0L19.858 2.32244C19.0199 3.58665 18.3168 4.90767 17.7486 6.28551C17.1946 7.64915 16.9247 9.15483 16.9389 10.8026V15.1918H10.8026Z" fill="#2A85FF"/>
</svg>
