<svg width="33" height="32" viewBox="0 0 33 32" fill="none" xmlns="http://www.w3.org/2000/svg">
<rect x="0.5" width="32" height="32" rx="16" fill="#2A85FF"/>
<path d="M16.4974 8.83337C17.1969 8.83337 17.7479 9.36173 18.0997 10.0747L19.2744 12.4435C19.31 12.5168 19.3944 12.62 19.5214 12.7145C19.6482 12.8088 19.7724 12.8608 19.8541 12.8746L21.9805 13.2308C22.7486 13.3599 23.3924 13.7364 23.6014 14.392C23.8102 15.047 23.5042 15.7278 22.9519 16.2811L22.9514 16.2817L21.2994 17.9473C21.2339 18.0133 21.1606 18.1377 21.1146 18.2997C21.0689 18.4606 21.0649 18.6072 21.0856 18.7019L21.0859 18.7032L21.5585 20.7636C21.7545 21.6212 21.6896 22.4716 21.0847 22.9162C20.4778 23.3623 19.6485 23.1645 18.895 22.7158L16.9017 21.5261C16.818 21.476 16.6742 21.4355 16.5007 21.4355C16.3285 21.4355 16.1817 21.4755 16.0926 21.5274L16.0913 21.5281L14.1019 22.7155C13.3494 23.1658 12.521 23.36 11.9141 22.9135C11.3097 22.4689 11.2414 21.6201 11.4381 20.7632L11.9106 18.7032L11.9109 18.7019C11.9316 18.6072 11.9276 18.4606 11.8819 18.2997C11.8359 18.1377 11.7625 18.0133 11.6971 17.9473L10.0439 16.2805C9.4951 15.7271 9.19014 15.047 9.3973 14.3929C9.60506 13.7369 10.2476 13.3599 11.0162 13.2307L13.1409 12.8748L13.1416 12.8747C13.2194 12.8612 13.3418 12.8097 13.4683 12.7152C13.5951 12.6204 13.6797 12.5169 13.7154 12.4435L13.7172 12.4398L14.8904 10.074L14.8909 10.0731C15.246 9.36076 15.7987 8.83337 16.4974 8.83337Z" fill="white"/>
</svg>
