<svg width="36" height="36" viewBox="0 0 36 36" fill="none" xmlns="http://www.w3.org/2000/svg">
<rect width="36" height="36" rx="18" fill="#83BF6E" fill-opacity="0.2"/>
<path d="M12.667 22.5833C12.667 22.9975 13.0028 23.3333 13.417 23.3333C13.8312 23.3333 14.167 22.9975 14.167 22.5833L12.667 22.5833ZM14.167 20.0833C14.167 19.669 13.8312 19.3333 13.417 19.3333C13.0028 19.3333 12.667 19.669 12.667 20.0833H14.167ZM16.8337 22.5833C16.8337 22.9975 17.1694 23.3333 17.5837 23.3333C17.9979 23.3333 18.3337 22.9975 18.3337 22.5833L16.8337 22.5833ZM18.3337 15.0833C18.3337 14.669 17.9979 14.3333 17.5837 14.3333C17.1694 14.3333 16.8337 14.669 16.8337 15.0833L18.3337 15.0833ZM21.0003 22.5833C21.0003 22.9975 21.3361 23.3333 21.7503 23.3333C22.1645 23.3333 22.5003 22.9975 22.5003 22.5833H21.0003ZM22.5003 19.2499C22.5003 18.8357 22.1645 18.4999 21.7503 18.4999C21.3361 18.4999 21.0003 18.8357 21.0003 19.2499H22.5003ZM14.167 22.5833L14.167 20.0833H12.667L12.667 22.5833L14.167 22.5833ZM18.3337 22.5833L18.3337 15.0833L16.8337 15.0833L16.8337 22.5833L18.3337 22.5833ZM22.5003 22.5833V19.2499H21.0003V22.5833H22.5003Z" fill="#83BF6E"/>
<path d="M25.917 12.5833C25.917 13.964 24.7977 15.0833 23.417 15.0833C22.0363 15.0833 20.917 13.964 20.917 12.5833C20.917 11.2025 22.0363 10.0833 23.417 10.0833C24.7977 10.0833 25.917 11.2025 25.917 12.5833Z" stroke="#83BF6E" stroke-width="1.5"/>
<path d="M25.9131 17.1666C25.9131 17.1666 25.9168 17.4495 25.9168 17.9999C25.9168 21.7319 25.9168 23.5979 24.7575 24.7572C23.5981 25.9166 21.7321 25.9166 18.0002 25.9166C14.2682 25.9166 12.4022 25.9166 11.2429 24.7572C10.0835 23.5979 10.0835 21.7319 10.0835 17.9999C10.0835 14.268 10.0835 12.402 11.2429 11.2426C12.4022 10.0833 14.2682 10.0833 18.0002 10.0833L18.8335 10.0833" stroke="#83BF6E" stroke-width="1.5" stroke-linecap="round" stroke-linejoin="round"/>
</svg>
