<svg width="36" height="36" viewBox="0 0 36 36" fill="none" xmlns="http://www.w3.org/2000/svg">
<rect width="36" height="36" rx="18" fill="#8E59FF" fill-opacity="0.2"/>
<g clip-path="url(#clip0_181_321)">
<path d="M19.6667 9.66675H16.3334C13.6007 9.66675 12.2344 9.66675 11.2658 10.3449C10.9075 10.5958 10.5958 10.9075 10.3449 11.2658C9.66675 12.2344 9.66675 13.6007 9.66675 16.3334C9.66675 19.0661 9.66675 20.4324 10.3449 21.401C10.5958 21.7593 10.9075 22.071 11.2658 22.3219C12.2344 23.0001 13.6007 23.0001 16.3334 23.0001H19.6667C22.3994 23.0001 23.7657 23.0001 24.7343 22.3219C25.0927 22.071 25.4043 21.7593 25.6552 21.401C26.3334 20.4324 26.3334 19.0661 26.3334 16.3334C26.3334 13.6007 26.3334 12.2344 25.6552 11.2658C25.4043 10.9075 25.0927 10.5958 24.7343 10.3449C23.7657 9.66675 22.3994 9.66675 19.6667 9.66675Z" stroke="#8E59FF" stroke-width="1.5" stroke-linecap="round"/>
<path d="M17.1667 20.5H18.8334" stroke="#8E59FF" stroke-width="1.5" stroke-linecap="round" stroke-linejoin="round"/>
<path d="M20.0834 26.3333L19.8205 25.9843C19.2278 25.1974 19.0808 23.9953 19.4557 23M15.9167 26.3333L16.1797 25.9843C16.7723 25.1974 16.9193 23.9953 16.5444 23" stroke="#8E59FF" stroke-width="1.5" stroke-linecap="round"/>
<path d="M13.8333 26.3333H22.1666" stroke="#8E59FF" stroke-width="1.5" stroke-linecap="round"/>
</g>
<defs>
<clipPath id="clip0_181_321">
<rect width="20" height="20" fill="white" transform="translate(8 8)"/>
</clipPath>
</defs>
</svg>
