<svg width="36" height="36" viewBox="0 0 36 36" fill="none" xmlns="http://www.w3.org/2000/svg">
<rect width="36" height="36" rx="18" fill="#B1E5FC" fill-opacity="0.3"/>
<g clip-path="url(#clip0_181_849)">
<path d="M24.1109 19.6667L24.7969 20.2983C24.9463 20.4451 25.0209 20.5185 24.9946 20.5808C24.9684 20.6432 24.8628 20.6432 24.6516 20.6432H22.0646C20.7402 20.6432 19.6665 21.6984 19.6665 23.0001C19.6665 23.2935 19.721 23.5743 19.8207 23.8334M21.8887 26.3334L21.2028 25.7019C21.0534 25.5551 20.9787 25.4817 21.005 25.4193C21.0313 25.357 21.1369 25.357 21.3481 25.357H23.9351C25.2595 25.357 26.3332 24.3018 26.3332 23.0001C26.3332 22.7067 26.2786 22.4258 26.179 22.1667" stroke="#B1E5FC" stroke-width="1.5" stroke-linecap="round" stroke-linejoin="round"/>
<path d="M26.3259 17.5834C26.3332 17.0828 26.3332 16.9463 26.3332 16.3334C26.3332 13.1907 26.3332 11.6194 25.3569 10.6431C24.3806 9.66675 22.8092 9.66675 19.6665 9.66675H16.3332C13.1905 9.66675 11.6191 9.66675 10.6428 10.6431C9.6665 11.6194 9.6665 13.1907 9.6665 16.3334C9.6665 19.4761 9.6665 21.0475 10.6428 22.0238C11.6191 23.0001 13.1905 23.0001 16.3332 23.0001H17.1665" stroke="#B1E5FC" stroke-width="1.5" stroke-linecap="round"/>
<path d="M23.4165 16.3335H23.409" stroke="#B1E5FC" stroke-width="2" stroke-linecap="round" stroke-linejoin="round"/>
<path d="M12.583 16.3335H12.5755" stroke="#B1E5FC" stroke-width="2" stroke-linecap="round" stroke-linejoin="round"/>
<path d="M20.0832 16.3333C20.0832 17.4839 19.1504 18.4167 17.9998 18.4167C16.8492 18.4167 15.9165 17.4839 15.9165 16.3333C15.9165 15.1827 16.8492 14.25 17.9998 14.25C19.1504 14.25 20.0832 15.1827 20.0832 16.3333Z" stroke="#B1E5FC" stroke-width="1.5"/>
</g>
<defs>
<clipPath id="clip0_181_849">
<rect width="20" height="20" fill="white" transform="translate(8 8)"/>
</clipPath>
</defs>
</svg>
