<svg width="36" height="36" viewBox="0 0 36 36" fill="none" xmlns="http://www.w3.org/2000/svg">
<rect width="36" height="36" rx="18" fill="#FF6A55" fill-opacity="0.2"/>
<path d="M25.0835 21.1897C22.9989 26.1298 16.2202 27.5694 12.3347 23.72C8.52473 19.9454 9.70427 13.1072 14.7139 10.9165" stroke="#FF6A55" stroke-width="1.5" stroke-linecap="round"/>
<path d="M22.7361 18.4166C24.3091 18.4166 25.0957 18.4166 25.6036 17.7124C25.6226 17.6861 25.6541 17.6389 25.6712 17.6113C26.1274 16.8725 25.8923 16.3049 25.4221 15.1697C24.9957 14.1404 24.3707 13.205 23.5829 12.4172C22.795 11.6293 21.8597 11.0044 20.8303 10.578C19.6952 10.1078 19.1276 9.8727 18.3888 10.3289C18.3612 10.3459 18.314 10.3775 18.2877 10.3965C17.5835 10.9044 17.5835 11.6909 17.5835 13.264V15.0228C17.5835 16.6227 17.5835 17.4226 18.0805 17.9196C18.5775 18.4166 19.3774 18.4166 20.9773 18.4166H22.7361Z" stroke="#FF6A55" stroke-width="1.5"/>
</svg>
