<svg width="36" height="36" viewBox="0 0 36 36" fill="none" xmlns="http://www.w3.org/2000/svg">
<rect width="36" height="36" rx="18" fill="#2A85FF" fill-opacity="0.1"/>
<g clip-path="url(#clip0_181_384)">
<path d="M15.8346 24.0518L15.6454 24.7775L15.8346 24.0518ZM14.7014 22.678L13.9867 22.9054L14.7014 22.678ZM14.9768 23.4041L14.3354 23.7928L14.9768 23.4041ZM21.2973 22.678L22.0119 22.9054L21.2973 22.678ZM21.0218 23.4041L21.6632 23.7928L21.0218 23.4041ZM20.164 24.0518L20.3532 24.7775L20.164 24.0518ZM21.1196 21.8893L21.4017 21.1944L21.1196 21.8893ZM21.3919 22.2851L22.1411 22.2508L21.3919 22.2851ZM14.879 21.8893L14.5969 21.1944L14.879 21.8893ZM14.6067 22.2851L13.8575 22.2508L14.6067 22.2851ZM20.8787 24.2371C20.9567 23.8303 20.6901 23.4373 20.2832 23.3594C19.8764 23.2814 19.4835 23.548 19.4055 23.9548L20.8787 24.2371ZM20.0497 24.5781L19.3131 24.437L19.3131 24.437L20.0497 24.5781ZM15.9488 24.5781L16.6854 24.437V24.437L15.9488 24.5781ZM16.593 23.9548C16.5151 23.548 16.1221 23.2814 15.7153 23.3594C15.3085 23.4373 15.0419 23.8303 15.1198 24.2371L16.593 23.9548ZM17.0088 26.2578L16.7648 26.967L17.0088 26.2578ZM16.2135 25.5772L15.5544 25.9352L16.2135 25.5772ZM19.7851 25.5772L20.4441 25.9352L20.4441 25.9352L19.7851 25.5772ZM18.9897 26.2578L19.2338 26.967L18.9897 26.2578ZM15.2647 22.6091H20.7339V21.1091H15.2647V22.6091ZM19.4194 23.346H16.5792V24.846H19.4194V23.346ZM16.5792 23.346C16.1532 23.346 16.0776 23.3401 16.0239 23.3261L15.6454 24.7775C15.9303 24.8518 16.2382 24.846 16.5792 24.846V23.346ZM13.9867 22.9054C14.0958 23.2484 14.1844 23.5436 14.3354 23.7928L15.6182 23.0153C15.5822 22.9559 15.5495 22.8699 15.4161 22.4506L13.9867 22.9054ZM16.0239 23.3261C15.8644 23.2845 15.7165 23.1776 15.6182 23.0153L14.3354 23.7928C14.629 24.2772 15.0954 24.6341 15.6454 24.7775L16.0239 23.3261ZM20.5826 22.4506C20.4491 22.8699 20.4164 22.9559 20.3804 23.0153L21.6632 23.7928C21.8142 23.5436 21.9028 23.2484 22.0119 22.9054L20.5826 22.4506ZM19.4194 24.846C19.7604 24.846 20.0683 24.8518 20.3532 24.7775L19.9747 23.3261C19.921 23.3401 19.8455 23.346 19.4194 23.346V24.846ZM20.3804 23.0153C20.2821 23.1776 20.1342 23.2845 19.9747 23.3261L20.3532 24.7775C20.9033 24.6341 21.3696 24.2772 21.6632 23.7928L20.3804 23.0153ZM20.7339 22.6091C20.7871 22.6091 20.8277 22.6091 20.8624 22.6096C20.8972 22.61 20.9179 22.6107 20.9304 22.6115C20.9431 22.6123 20.9383 22.6126 20.9233 22.6098C20.9068 22.6069 20.876 22.5999 20.8375 22.5843L21.4017 21.1944C21.2534 21.1342 21.1142 21.12 21.0229 21.1143C20.9332 21.1088 20.8281 21.1091 20.7339 21.1091V22.6091ZM22.0119 22.9054C22.0421 22.8106 22.0746 22.7095 22.097 22.6221C22.1198 22.5334 22.148 22.4025 22.1411 22.2508L20.6426 22.3194C20.641 22.2836 20.6439 22.2574 20.6456 22.2453C20.6472 22.2346 20.648 22.2339 20.6442 22.2489C20.6403 22.2639 20.634 22.2863 20.6231 22.3217C20.6123 22.357 20.5993 22.3979 20.5826 22.4506L22.0119 22.9054ZM20.8375 22.5843C20.7096 22.5324 20.6472 22.4198 20.6426 22.3194L22.1411 22.2508C22.1203 21.797 21.8445 21.3742 21.4017 21.1944L20.8375 22.5843ZM15.2647 21.1091C15.1705 21.1091 15.0655 21.1088 14.9757 21.1143C14.8844 21.12 14.7453 21.1342 14.5969 21.1944L15.1611 22.5843C15.1227 22.5999 15.0918 22.6069 15.0753 22.6098C15.0603 22.6126 15.0555 22.6123 15.0682 22.6115C15.0807 22.6107 15.1014 22.61 15.1362 22.6096C15.171 22.6091 15.2115 22.6091 15.2647 22.6091V21.1091ZM15.4161 22.4506C15.3993 22.3979 15.3863 22.357 15.3755 22.3217C15.3646 22.2863 15.3583 22.2639 15.3544 22.2489C15.3506 22.2339 15.3514 22.2346 15.353 22.2453C15.3547 22.2574 15.3576 22.2836 15.356 22.3194L13.8575 22.2508C13.8506 22.4025 13.8788 22.5334 13.9016 22.6221C13.924 22.7095 13.9565 22.8106 13.9867 22.9054L15.4161 22.4506ZM14.5969 21.1944C14.1541 21.3742 13.8783 21.797 13.8575 22.2508L15.356 22.3194C15.3514 22.4198 15.289 22.5324 15.1611 22.5843L14.5969 21.1944ZM19.4055 23.9548L19.3131 24.437L20.7863 24.7192L20.8787 24.2371L19.4055 23.9548ZM16.6854 24.437L16.593 23.9548L15.1198 24.2371L15.2122 24.7192L16.6854 24.437ZM17.9993 25.5828C17.4265 25.5828 17.3231 25.5728 17.2529 25.5487L16.7648 26.967C17.1303 27.0928 17.542 27.0828 17.9993 27.0828V25.5828ZM15.2122 24.7192C15.3029 25.1929 15.3719 25.5992 15.5544 25.9352L16.8725 25.2192C16.8287 25.1386 16.7966 25.0176 16.6854 24.437L15.2122 24.7192ZM17.2529 25.5487C17.0989 25.4957 16.9608 25.3817 16.8725 25.2192L15.5544 25.9352C15.8161 26.4169 16.2449 26.7881 16.7648 26.967L17.2529 25.5487ZM19.3131 24.437C19.2019 25.0176 19.1698 25.1386 19.126 25.2192L20.4441 25.9352C20.6266 25.5992 20.6956 25.1929 20.7863 24.7192L19.3131 24.437ZM17.9993 27.0828C18.4565 27.0828 18.8682 27.0928 19.2338 26.967L18.7456 25.5487C18.6755 25.5728 18.5721 25.5828 17.9993 25.5828V27.0828ZM19.126 25.2192C19.0378 25.3817 18.8996 25.4957 18.7456 25.5487L19.2338 26.967C19.7536 26.7881 20.1824 26.4169 20.4441 25.9352L19.126 25.2192Z" fill="#2A85FF"/>
<path d="M13.0746 20.5002C12.7593 19.7913 12.5835 19.0027 12.5835 18.1717C12.5835 15.0854 15.0086 12.5835 18.0002 12.5835C20.9917 12.5835 23.4168 15.0854 23.4168 18.1717C23.4168 19.0027 23.241 19.7913 22.9257 20.5002" stroke="#2A85FF" stroke-width="1.5" stroke-linecap="round"/>
<path d="M18 9.66675V10.5001" stroke="#2A85FF" stroke-width="1.5" stroke-linecap="round" stroke-linejoin="round"/>
<path d="M26.3335 18L25.5002 18" stroke="#2A85FF" stroke-width="1.5" stroke-linecap="round" stroke-linejoin="round"/>
<path d="M10.5 18L9.66667 18" stroke="#2A85FF" stroke-width="1.5" stroke-linecap="round" stroke-linejoin="round"/>
<path d="M23.8921 12.1074L23.3028 12.6967" stroke="#2A85FF" stroke-width="1.5" stroke-linecap="round" stroke-linejoin="round"/>
<path d="M12.6973 12.6973L12.108 12.108" stroke="#2A85FF" stroke-width="1.5" stroke-linecap="round" stroke-linejoin="round"/>
</g>
<defs>
<clipPath id="clip0_181_384">
<rect width="20" height="20" fill="white" transform="translate(8 8)"/>
</clipPath>
</defs>
</svg>
