<svg width="40" height="40" viewBox="0 0 40 40" fill="none" xmlns="http://www.w3.org/2000/svg">
<rect width="40" height="40" rx="20" fill="#FFBC99" fill-opacity="0.2"/>
<path d="M25 18.8045C25 18.4588 25 18.286 25.052 18.132C25.2032 17.6844 25.6018 17.5108 26.0011 17.3289C26.45 17.1244 26.6744 17.0222 26.8968 17.0042C27.1493 16.9838 27.4022 17.0382 27.618 17.1593C27.9041 17.3198 28.1036 17.6249 28.3079 17.873C29.2513 19.0188 29.7229 19.5918 29.8955 20.2236C30.0348 20.7334 30.0348 21.2666 29.8955 21.7764C29.6438 22.6979 28.8485 23.4704 28.2598 24.1854C27.9587 24.5511 27.8081 24.734 27.618 24.8407C27.4022 24.9618 27.1493 25.0162 26.8968 24.9958C26.6744 24.9778 26.45 24.8756 26.0011 24.6711C25.6018 24.4892 25.2032 24.3156 25.052 23.868C25 23.714 25 23.5412 25 23.1955V18.8045Z" stroke="#FFBC99" stroke-width="1.5"/>
<path d="M15 18.8044C15 18.3691 14.9878 17.978 14.6359 17.672C14.5079 17.5607 14.3383 17.4834 13.9989 17.3288C13.55 17.1243 13.3256 17.0221 13.1032 17.0041C12.4359 16.9502 12.0769 17.4056 11.6921 17.8729C10.7487 19.0188 10.2771 19.5917 10.1045 20.2235C9.96518 20.7333 9.96518 21.2665 10.1045 21.7764C10.3562 22.6979 11.1515 23.4703 11.7402 24.1853C12.1113 24.636 12.4658 25.0473 13.1032 24.9957C13.3256 24.9777 13.55 24.8755 13.9989 24.671C14.3383 24.5165 14.5079 24.4392 14.6359 24.3279C14.9878 24.0219 15 23.6307 15 23.1955V18.8044Z" stroke="#FFBC99" stroke-width="1.5"/>
<path d="M13 17C13 13.6863 16.134 11 20 11C23.866 11 27 13.6863 27 17" stroke="#FFBC99" stroke-width="1.5" stroke-linecap="square" stroke-linejoin="round"/>
<path d="M27.75 25C27.75 24.5858 27.4142 24.25 27 24.25C26.5858 24.25 26.25 24.5858 26.25 25H27.75ZM21 28.25C20.5858 28.25 20.25 28.5858 20.25 29C20.25 29.4142 20.5858 29.75 21 29.75V28.25ZM26.25 25V25.8H27.75V25H26.25ZM23 28.25H21V29.75H23V28.25ZM26.25 25.8C26.25 27.0056 24.9597 28.25 23 28.25V29.75C25.4585 29.75 27.75 28.129 27.75 25.8H26.25Z" fill="#FFBC99"/>
</svg>
