<svg width="143" height="40" viewBox="0 0 143 40" fill="none" xmlns="http://www.w3.org/2000/svg">
<g id="Group 1021 1" clipPath="url(#clip0_1243_5401)">
<g id="Clip path group">
<mask id="mask0_1243_5401" style="mask-type:luminance" maskUnits="userSpaceOnUse" x="45" y="8" width="98" height="29">
<g id="clip0_1222_24718">
<path id="Vector" d="M142.659 8.64844H45.2969V36.125H142.659V8.64844Z" fill="white"/>
</g>
</mask>
<g mask="url(#mask0_1243_5401)">
<g id="Group">
<path id="Vector_2" fillRule="evenodd" clipRule="evenodd" d="M92.5456 14.2891C93.9774 14.2891 95.2802 14.6285 96.4543 15.3073C97.6284 15.9861 98.5495 16.9403 99.2177 18.1701C99.8859 19.3998 100.22 20.8312 100.22 22.4643C100.22 24.0973 99.8859 25.5287 99.2177 26.7585C98.5495 27.9882 97.6284 28.9425 96.4543 29.6213C95.2802 30.3001 93.9774 30.6394 92.5456 30.6394C90.5792 30.6394 89.0329 29.9999 87.9066 28.7211V35.0763C87.9066 35.6575 87.4494 36.1287 86.8854 36.1287H84.4605C83.8966 36.1287 83.4395 35.6575 83.4395 35.0763V15.5777C83.4395 14.9965 83.8966 14.5253 84.4605 14.5253H86.6849C87.2489 14.5253 87.7061 14.9965 87.7061 15.5777V16.3551C88.8133 14.9777 90.4265 14.2891 92.5456 14.2891ZM91.7725 26.8617C92.9178 26.8617 93.8581 26.4633 94.5931 25.6664C95.3279 24.8695 95.6954 23.8021 95.6954 22.4642C95.6954 21.1263 95.3279 20.0589 94.5931 19.2622C93.8581 18.4653 92.9178 18.0668 91.7725 18.0668C90.627 18.0668 89.6868 18.4653 88.9518 19.2622C88.2168 20.0589 87.8493 21.1263 87.8493 22.4642C87.8493 23.8021 88.2168 24.8695 88.9518 25.6664C89.6868 26.4633 90.6269 26.8617 91.7725 26.8617Z" fill="#0A78FF"/>
<path id="Vector_3" fillRule="evenodd" clipRule="evenodd" d="M52.9714 30.4881C51.5395 30.4881 50.2366 30.1486 49.0625 29.4698C47.8885 28.791 46.9674 27.8368 46.2991 26.607C45.631 25.3774 45.2969 23.946 45.2969 22.313C45.2969 20.6798 45.631 19.2485 46.2991 18.0188C46.9674 16.789 47.8884 15.8348 49.0625 15.156C50.2366 14.4772 51.5396 14.1378 52.9714 14.1378C54.9376 14.1378 56.484 14.7772 57.6104 16.056V9.70088C57.6104 9.11963 58.0676 8.64844 58.6314 8.64844H61.0564C61.6203 8.64844 62.0775 9.11963 62.0775 9.70088V29.1994C62.0775 29.7806 61.6203 30.2519 61.0564 30.2519H58.8319C58.268 30.2519 57.8108 29.7806 57.8108 29.1994V28.4221C56.7035 29.7994 55.0904 30.4881 52.9714 30.4881ZM53.7445 17.9156C52.599 17.9156 51.6588 18.314 50.9239 19.1108C50.1889 19.9077 49.8214 20.9751 49.8214 22.313C49.8214 23.6509 50.1889 24.7183 50.9239 25.5151C51.6588 26.312 52.5992 26.7103 53.7445 26.7103C54.8898 26.7103 55.8301 26.312 56.5652 25.5151C57.3002 24.7182 57.6677 23.6509 57.6677 22.313C57.6677 20.9751 57.3002 19.9077 56.5652 19.1108C55.8301 18.314 54.8899 17.9156 53.7445 17.9156Z" fill="#0A78FF"/>
<path id="Vector_4" fillRule="evenodd" clipRule="evenodd" d="M104.688 30.6395C103.905 30.6395 103.247 30.3641 102.712 29.8131C102.177 29.2623 101.91 28.5737 101.91 27.7473C101.91 26.9209 102.177 26.2175 102.712 25.6962C103.247 25.1747 103.905 24.9141 104.688 24.9141C105.471 24.9141 106.129 25.1747 106.664 25.6962C107.198 26.2175 107.466 26.9013 107.466 27.7473C107.466 28.5934 107.198 29.2623 106.664 29.8131C106.129 30.3641 105.471 30.6395 104.688 30.6395Z" fill="#0A78FF"/>
<path id="Vector_5" fillRule="evenodd" clipRule="evenodd" d="M125.822 15.5758V29.349C125.822 29.9302 125.364 30.4014 124.8 30.4014H122.604C122.04 30.4014 121.584 29.9302 121.584 29.349V28.5126C120.991 29.2011 120.285 29.7276 119.464 30.0914C118.643 30.4555 117.756 30.6374 116.801 30.6374C114.778 30.6374 113.174 30.0374 111.99 28.8371C110.807 27.637 110.215 25.8563 110.215 23.4953V15.5758C110.215 14.9946 110.672 14.5234 111.236 14.5234H113.661C114.225 14.5234 114.682 14.9946 114.682 15.5758V22.8165C114.682 25.3743 115.722 26.6533 117.803 26.6533C118.872 26.6533 119.731 26.2942 120.381 25.5761C121.03 24.8579 121.354 23.7905 121.354 22.3738V15.5758C121.354 14.9946 121.812 14.5234 122.375 14.5234H124.8C125.364 14.5234 125.822 14.9946 125.822 15.5758Z" fill="#0A78FF"/>
<path id="Vector_6" fillRule="evenodd" clipRule="evenodd" d="M142.659 27.9123V29.349C142.659 29.9302 142.203 30.4014 141.638 30.4014H129.935C129.372 30.4014 128.914 29.9302 128.914 29.349V28.0125C128.914 27.7637 129 27.5229 129.156 27.3329L136.76 18.065H130.136C129.572 18.065 129.114 17.5939 129.114 17.0125V15.576C129.114 14.9947 129.572 14.5234 130.136 14.5234H141.381C141.944 14.5234 142.402 14.9947 142.402 15.576V16.9123C142.402 17.1612 142.315 17.4019 142.16 17.5919L134.555 26.8599H141.638C142.203 26.8599 142.659 27.3311 142.659 27.9123Z" fill="#0A78FF"/>
<path id="Vector_7" d="M69.6473 8.64844H67.2224C66.6584 8.64844 66.2012 9.11963 66.2012 9.70088V12.7312C66.2012 13.3125 66.6584 13.7836 67.2224 13.7836H69.6473C70.2113 13.7836 70.6684 13.3125 70.6684 12.7312V9.70088C70.6684 9.11963 70.2113 8.64844 69.6473 8.64844Z" fill="#0A78FF"/>
<path id="Vector_8" d="M78.2664 8.64844H75.8415C75.2775 8.64844 74.8203 9.11963 74.8203 9.70088V12.7312C74.8203 13.3125 75.2775 13.7836 75.8415 13.7836H78.2664C78.8304 13.7836 79.2876 13.3125 79.2876 12.7312V9.70088C79.2876 9.11963 78.8304 8.64844 78.2664 8.64844Z" fill="#0A78FF"/>
<path id="Vector_9" d="M78.2664 14.5234H75.8415C75.2775 14.5234 74.8203 14.9946 74.8203 15.5758V29.349C74.8203 29.9302 75.2775 30.4014 75.8415 30.4014H78.2664C78.8304 30.4014 79.2876 29.9302 79.2876 29.349V15.5758C79.2876 14.9946 78.8304 14.5234 78.2664 14.5234Z" fill="#0A78FF"/>
<path id="Vector_10" d="M69.6473 14.5234H67.2224C66.6584 14.5234 66.2012 14.9946 66.2012 15.5758V29.349C66.2012 29.9302 66.6584 30.4014 67.2224 30.4014H69.6473C70.2113 30.4014 70.6684 29.9302 70.6684 29.349V15.5758C70.6684 14.9946 70.2113 14.5234 69.6473 14.5234Z" fill="#0A78FF"/>
</g>
</g>
</g>
<g id="Clip path group_2">
<mask id="mask1_1243_5401" style="mask-type:luminance" maskUnits="userSpaceOnUse" x="0" y="0" width="38" height="40">
<g id="clip1_1222_24718">
<path id="Vector_11" d="M37.6933 0H0V40H37.6933V0Z" fill="white"/>
</g>
</mask>
<g mask="url(#mask1_1243_5401)">
<g id="Group_2">
<path id="Vector_12" fillRule="evenodd" clipRule="evenodd" d="M9.95751 0H19.6628L23.8248 7.42886V0H33.6833C35.8889 0 37.6933 1.85942 37.6933 4.13221V35.8678C37.6933 36.9915 37.252 38.014 36.5394 38.7607L32.3059 22.4788C31.8492 20.7226 30.0812 19.6708 28.377 20.1413L26.6002 20.6319C24.8959 21.1024 23.8752 22.9243 24.3319 24.6807L28.3151 40H22.6173L19.0158 26.1486C18.559 24.3922 16.7911 23.3405 15.0869 23.811L13.3101 24.3017C11.6057 24.7722 10.5851 26.5941 11.0417 28.3503L14.0708 40H4.00996C1.80438 40 0 38.1406 0 35.8678V4.13221C0 2.01805 1.56135 0.262009 3.55446 0.0270123L10.1975 11.1031L9.95751 0ZM9.59173 12.3103C8.31347 12.6632 7.54792 14.0295 7.89046 15.3468L9.30632 20.7921C9.64878 22.1093 10.9748 22.8982 12.2529 22.5453L15.1499 21.7453C16.4281 21.3925 17.1937 20.026 16.8512 18.7088L15.4353 13.2635C15.0928 11.9463 13.7669 11.1575 12.4886 11.5104L9.59173 12.3103ZM22.8819 8.64058C21.6037 8.9935 20.8381 10.3598 21.1806 11.6771L22.5964 17.1225C22.9389 18.4395 24.2649 19.2285 25.5431 18.8755L28.4401 18.0757C29.7182 17.7227 30.4838 16.3562 30.1413 15.0392L28.7255 9.59385C28.383 8.2766 27.0569 7.48773 25.7788 7.84068L22.8819 8.64058Z" fill="#0A78FF"/>
</g>
</g>
</g>
</g>
<defs>
<clipPath id="clip0_1243_5401">
<rect width="142.667" height="40" fill="white"/>
</clipPath>
</defs>
</svg>
