<svg width="227" height="40" viewBox="0 0 227 40" fill="none" xmlns="http://www.w3.org/2000/svg">
<g clip-path="url(#clip0_144_1389)">
<path d="M30.9432 0.282349H9.16845C2.86359 0.282349 0 3.12045 0 9.36298V30.9219C0 37.161 2.86359 39.9994 9.16845 39.9994H30.9432C37.1891 39.9994 40.0558 37.161 40.0558 30.9219V9.36298C40.0558 3.12073 37.1891 0.282349 30.9432 0.282349Z" fill="#8B1724"/>
<path fill-rule="evenodd" clip-rule="evenodd" d="M23.0397 18.3256C26.3306 18.2118 26.8995 15.4319 25.9338 13.0489C24.9127 10.6075 24.2882 8.79316 23.1534 6.40992C22.4155 4.70954 21.2251 3.91296 20.0319 3.91296C18.8415 3.91296 17.6515 4.70926 16.8551 6.40992C15.7787 8.79316 15.096 10.6075 14.1334 13.0489C13.1677 15.4321 13.6782 18.2118 16.9691 18.3256H23.04H23.0397Z" fill="white"/>
<path fill-rule="evenodd" clip-rule="evenodd" d="M25.9339 27.2312C26.8996 24.8511 26.3307 22.0683 23.0398 21.9576H16.9689C13.6783 22.0685 13.1678 24.8513 14.1333 27.2312C15.0959 29.6728 15.7785 31.4872 16.8549 33.9286C17.6513 35.5737 18.8417 36.3671 20.0317 36.3671C21.2249 36.3671 22.415 35.5737 23.1533 33.9286C24.288 31.4872 24.9123 29.6728 25.9336 27.2312H25.9339Z" fill="white"/>
<path d="M64.9942 7.49029H61.645C60.9654 7.49029 60.4549 8.05605 60.4549 8.68022V9.02136C59.034 7.49001 57.1056 6.97955 55.1191 6.97955C50.0139 6.97955 45.9851 11.2906 45.9851 16.5091C45.9851 21.7305 50.0139 26.0418 55.1191 26.0418C57.1059 26.0418 59.0342 25.5313 60.4549 23.9416V24.3383C60.4549 24.9625 60.9654 25.5314 61.645 25.5314H64.9942C65.6185 25.5314 66.1843 24.9622 66.1843 24.3383V8.68022C66.1843 8.05605 65.6185 7.49029 64.9942 7.49029ZM56.0264 20.7652C53.6429 20.7652 51.7145 19.0064 51.7145 16.5094C51.7145 14.0125 53.6429 12.2537 56.0264 12.2537C58.5234 12.2537 60.4549 14.0125 60.4549 16.5094C60.4549 19.0064 58.5234 20.7652 56.0264 20.7652Z" fill="#8B1724"/>
<path d="M81.5193 6.97955C81.2919 6.97955 78.2841 7.03486 76.6941 9.02136V8.68021C76.6941 8.05605 76.1283 7.49029 75.504 7.49029H72.0994C71.4752 7.49029 70.9062 8.05605 70.9062 8.68021V24.3383C70.9062 24.9625 71.4755 25.5314 72.0994 25.5314H75.504C76.1283 25.5314 76.6941 24.9622 76.6941 24.3383V15.6606C76.7525 14.526 77.4324 12.2537 79.8156 12.2537C82.6541 12.2537 82.6541 14.5816 82.6541 15.5472V24.3386C82.6541 24.9628 83.2199 25.5316 83.8442 25.5316H87.1935C87.8177 25.5316 88.3835 24.9625 88.3835 24.3386V14.0127C88.3835 13.73 88.0424 6.98012 81.5191 6.98012L81.5193 6.97955Z" fill="#8B1724"/>
<path d="M102.141 6.97955C96.6386 6.97955 92.1545 11.2906 92.1545 16.5091C92.1545 21.7305 96.6386 26.0418 102.141 26.0418C107.701 26.0418 112.129 21.7308 112.129 16.5091C112.129 11.2909 107.701 6.97955 102.141 6.97955ZM102.141 20.7649C99.8154 20.7649 97.8843 18.9505 97.8843 16.5091C97.8843 14.0706 99.8157 12.2534 102.141 12.2534C104.524 12.2534 106.397 14.0709 106.397 16.5091C106.397 18.9508 104.524 20.7649 102.141 20.7649Z" fill="#8B1724"/>
<path d="M127.222 7.3191C126.939 7.26379 126.598 7.26379 126.429 7.26379C125.691 7.26379 122.741 7.4331 121.717 10.3849V8.68144C121.717 8.05727 121.151 7.49151 120.527 7.49151H117.178C116.554 7.49151 115.988 8.05727 115.988 8.68144V24.3395C115.988 24.9637 116.554 25.5326 117.178 25.5326H120.527C121.151 25.5326 121.717 24.9634 121.717 24.3395V17.759C121.717 16.0002 123.138 12.4823 126.712 12.4823H127.222C127.96 12.4823 128.262 12.0277 128.262 11.3483V8.56828C128.262 7.88571 127.96 7.37779 127.222 7.3191Z" fill="#8B1724"/>
<path d="M142.66 6.9805C142.377 6.9805 139.427 7.0358 137.782 9.02231V1.2487C137.782 0.624535 137.272 0.000366211 136.589 0.000366211H133.243C132.619 0.000366211 132.05 0.624817 132.05 1.2487V24.3393C132.05 24.9634 132.619 25.5323 133.243 25.5323H136.589C137.272 25.5323 137.782 24.9631 137.782 24.3393V15.6616C137.896 14.527 138.576 12.2546 140.959 12.2546C143.795 12.2546 143.795 14.5825 143.795 15.5481V24.3395C143.795 24.9637 144.308 25.5326 144.988 25.5326H148.279C148.903 25.5326 149.472 24.9634 149.472 24.3395V14.0137C149.472 13.7309 149.186 6.98106 142.66 6.98106V6.9805Z" fill="#8B1724"/>
<path d="M163.232 6.97955C157.672 6.97955 153.246 11.2906 153.246 16.5091C153.246 21.7305 157.672 26.0418 163.232 26.0418C168.737 26.0418 173.218 21.7308 173.218 16.5091C173.218 11.2909 168.737 6.97955 163.232 6.97955ZM163.232 20.7649C160.849 20.7649 158.976 18.9505 158.976 16.5091C158.976 14.0706 160.849 12.2534 163.232 12.2534C165.561 12.2534 167.489 14.0709 167.489 16.5091C167.489 18.9508 165.56 20.7649 163.232 20.7649Z" fill="#8B1724"/>
<path d="M197.241 6.97955C196.955 6.97955 193.778 6.97955 192.019 9.70084C191.17 8.2832 189.693 6.97955 187.252 6.97955C186.969 6.97955 184.358 7.03486 182.712 9.02136V8.68021C182.712 8.05605 182.147 7.49029 181.522 7.49029H178.173C177.549 7.49029 176.983 8.05605 176.983 8.68021V24.3383C176.983 24.9625 177.549 25.5313 178.173 25.5313H181.522C182.147 25.5313 182.712 24.9622 182.712 24.3383V15.885C182.712 14.9225 182.885 12.2534 185.268 12.2534C187.31 12.2534 187.593 14.1846 187.593 15.0918V24.3383C187.593 24.9625 188.162 25.5313 188.786 25.5313H192.133C192.757 25.5313 193.326 24.9622 193.326 24.3383V15.7159C193.326 14.9225 193.495 12.2534 195.878 12.2534C197.979 12.2534 198.203 14.1846 198.203 15.0918V24.3383C198.203 24.9625 198.772 25.5313 199.397 25.5313H202.743C203.367 25.5313 203.936 24.9622 203.936 24.3383V14.0125C203.936 12.0291 202.915 6.97984 197.241 6.97984L197.241 6.97955Z" fill="#8B1724"/>
<path d="M217.588 6.97955C212.142 6.97955 207.716 11.2906 207.716 16.5091C207.716 21.7305 212.142 26.0418 217.588 26.0418C220.369 26.0418 222.583 25.1346 224.001 24.3967C224.397 24.1693 224.739 23.7173 224.739 23.2037C224.739 22.921 224.683 22.6379 224.511 22.4105L222.638 20.424C222.3 20.0857 222.014 19.9136 221.503 19.9136C221.448 19.9136 221.276 19.9136 221.165 19.972C219.406 20.7652 217.533 20.7652 217.533 20.7652C216.001 20.7652 214.753 20.0273 214.07 18.7787H225.477C226.101 18.7787 226.667 18.1545 226.667 17.5303V16.6815C226.667 10.4393 222.3 6.97984 217.588 6.97984L217.588 6.97955ZM213.843 14.8638C214.411 12.991 215.829 12.2531 217.533 12.2531C219.178 12.2531 220.596 12.991 221.107 14.8638H213.843Z" fill="#8B1724"/>
<path d="M226.292 29.2179H225.894C225.835 29.2179 225.78 29.2763 225.78 29.3316L224.87 30.9767L224.016 29.3316C223.957 29.2763 223.902 29.2179 223.846 29.2179H223.446C223.39 29.2179 223.335 29.2763 223.335 29.39L224.584 31.6593V32.7942C224.584 32.8495 224.642 32.9079 224.698 32.9079H225.04C225.154 32.9079 225.21 32.8495 225.21 32.7942V31.6593L226.462 29.39C226.462 29.2763 226.406 29.2179 226.292 29.2179H226.292ZM219.693 29.2179H219.295C219.236 29.2179 219.181 29.2763 219.181 29.3316V31.8286L217.244 29.2763C217.188 29.2763 217.188 29.2179 217.13 29.2179H216.732C216.677 29.2179 216.563 29.2763 216.563 29.3316V32.7942C216.563 32.8495 216.677 32.9079 216.732 32.9079H217.075C217.13 32.9079 217.189 32.8495 217.189 32.7942V30.2972L219.181 32.8495C219.181 32.9079 219.236 32.9079 219.236 32.9079H219.693C219.748 32.9079 219.807 32.8495 219.807 32.7942V29.3316C219.807 29.2763 219.748 29.2179 219.693 29.2179H219.693ZM210.645 31.6593L211.326 29.8421L212.011 31.6593H210.645ZM211.841 29.3316C211.783 29.2763 211.727 29.2179 211.669 29.2179H210.987C210.929 29.2179 210.873 29.2763 210.814 29.3316L209.563 32.7942C209.563 32.8495 209.621 32.9079 209.735 32.9079H210.133C210.133 32.9079 210.189 32.9079 210.247 32.8495L210.417 32.2837H212.18L212.409 32.8495C212.409 32.9079 212.464 32.9079 212.523 32.9079H212.921C213.035 32.9079 213.09 32.8495 213.09 32.7942L211.841 29.3316ZM205.353 31.2597H204.499V29.7868H205.353C205.751 29.7868 206.038 30.0145 206.038 30.5249C206.038 31.0354 205.751 31.2597 205.353 31.2597ZM205.353 29.2179H203.987C203.932 29.2179 203.873 29.2763 203.873 29.3316V32.7942C203.873 32.8495 203.931 32.9079 203.987 32.9079H204.385C204.443 32.9079 204.499 32.8495 204.499 32.7942V31.8286H205.353C205.353 31.8286 206.661 31.8286 206.661 30.5249C206.661 29.2182 205.353 29.2182 205.353 29.2182V29.2179ZM199.947 29.2179H199.435C199.38 29.2179 199.38 29.2763 199.321 29.2763L198.128 31.2044L196.932 29.2763C196.876 29.2763 196.876 29.2179 196.82 29.2179H196.305C196.25 29.2179 196.195 29.2763 196.195 29.3316V32.7942C196.195 32.8495 196.25 32.9079 196.305 32.9079H196.648C196.762 32.9079 196.82 32.8495 196.82 32.7942V30.2972L198.014 32.17C198.014 32.2253 198.07 32.2253 198.07 32.2253H198.184C198.242 32.2253 198.242 32.2253 198.242 32.17L199.494 30.2972V32.7942C199.494 32.8495 199.55 32.9079 199.608 32.9079H199.947C200.062 32.9079 200.12 32.8495 200.12 32.7942V29.3316C200.12 29.2763 200.062 29.2179 199.947 29.2179ZM190.505 32.3943C189.765 32.3943 189.194 31.8286 189.194 31.0907C189.194 30.2972 189.765 29.7284 190.505 29.7284C191.242 29.7284 191.812 30.2972 191.812 31.0907C191.812 31.8286 191.242 32.3943 190.505 32.3943ZM190.505 29.1626C189.423 29.1626 188.568 30.0142 188.568 31.0907C188.568 32.1116 189.423 32.9635 190.505 32.9635C191.584 32.9635 192.438 32.1116 192.438 31.0907C192.438 30.0145 191.584 29.1626 190.505 29.1626ZM184.871 31.6011H184.415C184.359 31.6011 184.359 31.6596 184.301 31.7149C184.075 32.1116 183.675 32.3943 183.163 32.3943C182.426 32.3943 181.8 31.8286 181.8 31.0907C181.8 30.2972 182.425 29.7284 183.163 29.7284C183.675 29.7284 184.076 30.0142 184.301 30.4662C184.359 30.5246 184.359 30.5247 184.415 30.5247H184.871C184.926 30.5247 184.985 30.4662 184.985 30.4109C184.701 29.6728 184.017 29.1626 183.163 29.1626C182.083 29.1626 181.174 30.0142 181.174 31.0907C181.174 32.1116 182.083 32.9635 183.163 32.9635C184.017 32.9635 184.702 32.453 184.985 31.7736C184.985 31.6596 184.926 31.6014 184.871 31.6014V31.6011ZM175.256 30.863H173.945C173.89 30.863 173.831 30.9214 173.831 30.977V31.3181C173.831 31.3734 173.89 31.4318 173.945 31.4318H174.744C174.744 31.4318 174.63 32.3943 173.547 32.3943C172.807 32.3943 172.181 31.8286 172.181 31.0907C172.181 30.2972 172.807 29.7284 173.547 29.7284C174.004 29.7284 174.402 29.9005 174.685 30.2388C174.744 30.2388 174.744 30.2972 174.799 30.2972L174.858 30.2388L175.142 30.0698C175.142 30.0698 175.197 30.0145 175.197 29.9558C175.197 29.9005 175.142 29.9005 175.142 29.8421C174.913 29.5591 174.401 29.1626 173.547 29.1626C172.409 29.1626 171.555 30.0142 171.555 31.0907C171.555 32.1116 172.409 32.9635 173.547 32.9635C173.72 32.9635 175.142 32.9082 175.37 31.4321V30.977C175.37 30.9217 175.311 30.863 175.256 30.863H175.256ZM167.744 29.2179H167.346C167.291 29.2179 167.232 29.2763 167.232 29.3316V31.8286L165.299 29.2763C165.299 29.2763 165.24 29.2179 165.185 29.2179H164.787C164.729 29.2179 164.673 29.2763 164.673 29.3316V32.7942C164.673 32.8495 164.729 32.9079 164.787 32.9079H165.129C165.185 32.9079 165.299 32.8495 165.299 32.7942V30.2972L167.232 32.8495C167.232 32.9079 167.291 32.9079 167.291 32.9079H167.744C167.803 32.9079 167.858 32.8495 167.858 32.7942V29.3316C167.858 29.2763 167.803 29.2179 167.744 29.2179H167.744ZM160.747 29.2179H160.349C160.291 29.2179 160.235 29.2763 160.235 29.3316V32.7942C160.235 32.8495 160.291 32.9079 160.349 32.9079H160.747C160.802 32.9079 160.861 32.8495 160.861 32.7942V29.3316C160.861 29.2763 160.802 29.2179 160.747 29.2179ZM156.479 29.2179H153.747C153.692 29.2179 153.577 29.2763 153.577 29.3316V29.6728C153.577 29.7281 153.692 29.7865 153.747 29.7865H154.774V32.7939C154.774 32.8492 154.885 32.9076 154.944 32.9076H155.286C155.341 32.9076 155.455 32.8492 155.455 32.7939V29.7865H156.479C156.535 29.7865 156.649 29.7281 156.649 29.6728V29.3316C156.649 29.2763 156.535 29.2179 156.479 29.2179H156.479ZM150.845 32.339H149.14V29.3316C149.14 29.2763 149.081 29.2179 149.026 29.2179H148.628C148.569 29.2179 148.514 29.2763 148.514 29.3316V32.7942C148.514 32.8495 148.569 32.9079 148.628 32.9079H150.845C150.904 32.9079 150.959 32.8495 150.959 32.7942V32.4527C150.959 32.3943 150.904 32.339 150.845 32.339ZM144.644 29.2179H144.246C144.19 29.2179 144.132 29.2763 144.132 29.3316V31.4871C144.132 31.6009 144.132 32.3943 143.278 32.3943C142.426 32.3943 142.368 31.6011 142.368 31.4871V29.3316C142.368 29.2763 142.312 29.2179 142.254 29.2179H141.856C141.801 29.2179 141.742 29.2763 141.742 29.3316V31.4871C141.742 32.9632 143.278 32.9632 143.278 32.9632C143.278 32.9632 144.758 32.9632 144.758 31.4871V29.3316C144.758 29.2763 144.703 29.2179 144.644 29.2179H144.644ZM135.997 30.1835C135.997 29.9558 136.339 29.7284 136.623 29.7284C136.907 29.7284 137.19 29.8421 137.418 30.0142C137.477 30.0695 137.532 30.0695 137.532 30.0695C137.588 30.0695 137.588 30.0695 137.646 30.0142L137.93 29.8421V29.7284V29.673C137.702 29.4456 137.363 29.1626 136.678 29.1626C135.654 29.1626 135.426 29.7868 135.426 30.1835C135.426 31.4874 137.532 31.2597 137.532 31.9423C137.532 31.9976 137.363 32.3943 136.792 32.3943C136.339 32.3943 136.052 32.225 135.824 31.9976H135.769H135.655L135.426 32.225C135.426 32.225 135.371 32.2834 135.371 32.339C135.371 32.339 135.371 32.3943 135.426 32.3943C135.655 32.6805 135.997 32.9632 136.737 32.9632C137.816 32.9632 138.159 32.339 138.159 31.9976C138.159 30.6353 135.997 31.0351 135.997 30.1832V30.1835ZM131.615 29.2179H131.272C131.217 29.2179 131.158 29.2763 131.158 29.3316V31.8286L129.225 29.2763C129.169 29.2763 129.169 29.2179 129.111 29.2179H128.658C128.599 29.2179 128.544 29.2763 128.544 29.3316V32.7942C128.544 32.8495 128.599 32.9079 128.658 32.9079H129.056C129.111 32.9079 129.17 32.8495 129.17 32.7942V30.2972L131.159 32.8495C131.159 32.9079 131.217 32.9079 131.217 32.9079H131.615C131.729 32.9079 131.785 32.8495 131.785 32.7942V29.3316C131.785 29.2763 131.729 29.2179 131.615 29.2179H131.615ZM122.909 32.3943C122.169 32.3943 121.543 31.8286 121.543 31.0907C121.543 30.2972 122.169 29.7284 122.909 29.7284C123.594 29.7284 124.22 30.2972 124.22 31.0907C124.22 31.8286 123.594 32.3943 122.909 32.3943ZM122.909 29.1626C121.771 29.1626 120.917 30.0142 120.917 31.0907C120.917 32.1116 121.771 32.9635 122.909 32.9635C123.992 32.9635 124.843 32.1116 124.843 31.0907C124.843 30.0145 123.992 29.1626 122.909 29.1626ZM117.278 31.6011H116.822C116.763 31.6011 116.708 31.6596 116.708 31.7149C116.48 32.1116 116.026 32.3943 115.57 32.3943C114.83 32.3943 114.204 31.8286 114.204 31.0907C114.204 30.2972 114.83 29.7284 115.57 29.7284C116.026 29.7284 116.48 30.0142 116.708 30.4662C116.708 30.5246 116.763 30.5247 116.822 30.5247H117.278C117.334 30.5247 117.39 30.4662 117.39 30.4109C117.106 29.6728 116.424 29.1626 115.57 29.1626C114.432 29.1626 113.578 30.0142 113.578 31.0907C113.578 32.1116 114.432 32.9635 115.57 32.9635C116.424 32.9635 117.106 32.453 117.39 31.7736C117.39 31.6596 117.334 31.6014 117.278 31.6014V31.6011ZM107.605 29.7868C107.719 29.7868 107.774 29.7284 107.774 29.673V29.3319C107.774 29.2766 107.719 29.2182 107.605 29.2182H105.384C105.329 29.2182 105.27 29.2766 105.27 29.3319V32.7945C105.27 32.8498 105.329 32.9082 105.384 32.9082H107.605C107.719 32.9082 107.774 32.8498 107.774 32.7945V32.453C107.774 32.3946 107.719 32.3393 107.605 32.3393H105.896V31.4321H107.491C107.546 31.4321 107.605 31.3737 107.605 31.26V30.922C107.605 30.8635 107.546 30.808 107.491 30.808H105.896V29.787H107.605V29.7868ZM101.517 29.2179H98.7854C98.7298 29.2179 98.6158 29.2763 98.6158 29.3316V29.6728C98.6158 29.7281 98.7298 29.7865 98.7854 29.7865H99.8092V32.7939C99.8092 32.8492 99.9232 32.9076 99.9819 32.9076H100.321C100.38 32.9076 100.435 32.8492 100.435 32.7939V29.7865H101.517C101.573 29.7865 101.631 29.7281 101.631 29.6728V29.3316C101.631 29.2763 101.573 29.2179 101.517 29.2179ZM93.4934 31.6593L94.178 29.8421L94.8595 31.6593H93.4934ZM94.6899 29.3316C94.6315 29.2763 94.5759 29.2179 94.5172 29.2179H93.8357C93.7773 29.2179 93.7217 29.2763 93.6661 29.3316L92.4139 32.7942C92.4139 32.8495 92.4695 32.9079 92.5835 32.9079H92.9814C93.0398 32.9079 93.0398 32.9079 93.0954 32.8495L93.2651 32.2837H95.0876L95.2572 32.8495C95.3156 32.9079 95.3156 32.9079 95.3712 32.9079H95.7688C95.8831 32.9079 95.9415 32.8495 95.9415 32.7942L94.6894 29.3316H94.6899ZM89.5678 29.2179H86.8357C86.7801 29.2179 86.7248 29.2763 86.7248 29.3316V29.6728C86.7248 29.7281 86.7801 29.7865 86.8357 29.7865H87.918V32.7939C87.918 32.8492 87.9736 32.9076 88.032 32.9076H88.3743C88.4299 32.9076 88.544 32.8492 88.544 32.7939V29.7865H89.5678C89.6262 29.7865 89.7374 29.7281 89.7374 29.6728V29.3316C89.7374 29.2763 89.6265 29.2179 89.5678 29.2179ZM81.3744 30.1835C81.3744 29.9558 81.658 29.7284 81.9447 29.7284C82.2286 29.7284 82.5707 29.8421 82.7959 30.0142C82.7959 30.0695 82.8543 30.0695 82.8543 30.0695C82.9096 30.0695 82.9096 30.0695 82.9683 30.0142L83.2519 29.8421V29.7284V29.673C83.0823 29.4456 82.6847 29.1626 82.0001 29.1626C80.9762 29.1626 80.7479 29.7868 80.7479 30.1835C80.7479 31.4874 82.854 31.2597 82.854 31.9423C82.854 31.9976 82.74 32.3943 82.1138 32.3943C81.6575 32.3943 81.3738 32.225 81.2042 31.9976H81.0902H80.9762L80.7479 32.225C80.7479 32.225 80.6923 32.2834 80.6923 32.339L80.7479 32.3943C80.9762 32.6805 81.3738 32.9632 82.0585 32.9632C83.1376 32.9632 83.48 32.339 83.48 31.9976C83.48 30.6353 81.3738 31.0351 81.3738 30.1832L81.3744 30.1835ZM77.0509 29.7868C77.1062 29.7868 77.2205 29.7284 77.2205 29.673V29.3319C77.2205 29.2766 77.1065 29.2182 77.0509 29.2182H74.8305C74.7752 29.2182 74.7165 29.2766 74.7165 29.3319V32.7945C74.7165 32.8498 74.7749 32.9082 74.8305 32.9082H77.0509C77.1062 32.9082 77.2205 32.8498 77.2205 32.7945V32.453C77.2205 32.3946 77.1065 32.3393 77.0509 32.3393H75.3424V31.4321H76.9366C76.9922 31.4321 77.0506 31.3737 77.0506 31.26V30.922C77.0506 30.8635 76.9922 30.808 76.9366 30.808H75.3424V29.787H77.0509V29.7868ZM68.8019 32.339H67.0934V29.3316C67.0934 29.2763 67.0381 29.2179 66.9794 29.2179H66.5818C66.5262 29.2179 66.4678 29.2763 66.4678 29.3316V32.7942C66.4678 32.8495 66.5262 32.9079 66.5818 32.9079H68.8019C68.8575 32.9079 68.9715 32.8495 68.9715 32.7942V32.4527C68.9715 32.3943 68.8575 32.339 68.8019 32.339ZM60.5501 31.6593L61.2347 29.8421L61.8607 31.6593H60.5501ZM61.688 29.3316C61.688 29.2763 61.6324 29.2179 61.5184 29.2179H60.8924C60.7784 29.2179 60.7228 29.2763 60.7228 29.3316L59.4709 32.7942C59.4709 32.8495 59.5265 32.9079 59.5849 32.9079H59.9828C60.0382 32.9079 60.0969 32.9079 60.0969 32.8495L60.3221 32.2837H62.0859L62.3142 32.8495C62.3142 32.9079 62.3729 32.9079 62.4282 32.9079H62.8261C62.8845 32.9079 62.9401 32.8495 62.9401 32.7942L61.6882 29.3316H61.688ZM55.943 29.7868C55.9983 29.7868 56.057 29.7284 56.057 29.673V29.3319C56.057 29.2766 55.9986 29.2182 55.943 29.2182H53.7226C53.6086 29.2182 53.553 29.2766 53.553 29.3319V32.7945C53.553 32.8498 53.6086 32.9082 53.7226 32.9082H55.943C55.9983 32.9082 56.057 32.8498 56.057 32.7945V32.453C56.057 32.3946 55.9986 32.3393 55.943 32.3393H54.1792V31.4321H55.7703C55.8287 31.4321 55.943 31.3737 55.943 31.26V30.922C55.943 30.8635 55.8287 30.808 55.7703 30.808H54.1792V29.787H55.943V29.7868ZM47.9189 31.2597V29.7868H48.7176C49.1152 29.7868 49.4544 30.0145 49.4544 30.5249C49.4544 31.0354 49.1152 31.2597 48.7176 31.2597H47.9189ZM50.0806 30.5249C50.0806 29.2182 48.7732 29.2182 48.7732 29.2182H47.407C47.3514 29.2182 47.293 29.2766 47.293 29.3319V32.7945C47.293 32.8498 47.3514 32.9082 47.407 32.9082H47.7493C47.8046 32.9082 47.9189 32.8498 47.9189 32.7945V31.8289H48.5449L49.3991 32.8498C49.3991 32.9082 49.4547 32.9082 49.5134 32.9082H49.911C49.9666 32.9082 50.0253 32.8498 50.0253 32.7945L49.2298 31.7151C49.569 31.6014 50.0809 31.3184 50.0809 30.5252L50.0806 30.5249Z" fill="#8B1724"/>
</g>
<defs>
<clipPath id="clip0_144_1389">
<rect width="226.667" height="40" fill="white"/>
</clipPath>
</defs>
</svg>
